<svg width="18" height="18" viewBox="0 0 18 18" fill="none" xmlns="http://www.w3.org/2000/svg">
<path d="M9.00008 17.3333C4.39758 17.3333 0.666748 13.6025 0.666748 9.00001C0.666748 4.39751 4.39758 0.666672 9.00008 0.666672C13.6026 0.666672 17.3334 4.39751 17.3334 9.00001C17.3334 13.6025 13.6026 17.3333 9.00008 17.3333ZM9.00008 15.6667C10.7682 15.6667 12.4639 14.9643 13.7141 13.7141C14.9644 12.4638 15.6667 10.7681 15.6667 9.00001C15.6667 7.2319 14.9644 5.5362 13.7141 4.28596C12.4639 3.03572 10.7682 2.33334 9.00008 2.33334C7.23197 2.33334 5.53628 3.03572 4.28604 4.28596C3.03579 5.5362 2.33341 7.2319 2.33341 9.00001C2.33341 10.7681 3.03579 12.4638 4.28604 13.7141C5.53628 14.9643 7.23197 15.6667 9.00008 15.6667ZM8.16675 11.5H9.83342V13.1667H8.16675V11.5ZM9.83342 10.1292V10.6667H8.16675V9.41667C8.16675 9.19566 8.25455 8.9837 8.41083 8.82742C8.56711 8.67114 8.77907 8.58334 9.00008 8.58334C9.23681 8.58332 9.46867 8.51609 9.66869 8.38945C9.8687 8.26281 10.0286 8.08198 10.1299 7.86799C10.2311 7.65401 10.2696 7.41567 10.2407 7.18071C10.2117 6.94575 10.1167 6.72383 9.96661 6.54076C9.81651 6.3577 9.61751 6.22103 9.39277 6.14665C9.16802 6.07226 8.92678 6.06323 8.6971 6.12059C8.46743 6.17796 8.25876 6.29936 8.09539 6.47069C7.93201 6.64201 7.82065 6.8562 7.77425 7.08834L6.13925 6.76084C6.24061 6.25424 6.47467 5.78365 6.81752 5.39716C7.16036 5.01067 7.59968 4.72216 8.09057 4.56111C8.58147 4.40005 9.10632 4.37224 9.61148 4.48052C10.1166 4.58879 10.584 4.82927 10.9658 5.17736C11.3475 5.52545 11.63 5.96868 11.7843 6.46172C11.9387 6.95477 11.9593 7.47996 11.8441 7.9836C11.729 8.48723 11.4821 8.95125 11.1288 9.32823C10.7756 9.7052 10.3285 9.9816 9.83342 10.1292Z" fill="#718096"/>
</svg>
